Chivo-Black.ufo
<glyph name="ampersand" format="1">
  <advance width="729"/>
  <unicode hex="0026"/>
  <outline>
    <contour>
      <point x="175" y="696"/>
      <point x="49" y="635"/>
      <point x="49" y="506" type="curve" smooth="yes"/>
      <point x="49" y="438"/>
      <point x="84" y="379"/>
      <point x="151" y="358" type="curve"/>
      <point x="71" y="334"/>
      <point x="28" y="282"/>
      <point x="28" y="197" type="curve" smooth="yes"/>
      <point x="28" y="42"/>
      <point x="160" y="0"/>
      <point x="300" y="0" type="curve" smooth="yes"/>
      <point x="619" y="0" type="line"/>
      <point x="619" y="279" type="line"/>
      <point x="699" y="279" type="line"/>
      <point x="699" y="421" type="line"/>
      <point x="619" y="421" type="line"/>
      <point x="619" y="540" type="line"/>
      <point x="482" y="540" type="line"/>
      <point x="428" y="421" type="line"/>
      <point x="307" y="421" type="line" smooth="yes"/>
      <point x="260" y="421"/>
      <point x="243" y="461"/>
      <point x="243" y="484" type="curve" smooth="yes"/>
      <point x="243" y="525"/>
      <point x="277" y="548"/>
      <point x="316" y="548" type="curve" smooth="yes"/>
      <point x="325" y="548"/>
      <point x="335" y="546"/>
      <point x="345" y="543" type="curve"/>
      <point x="345" y="693" type="line"/>
      <point x="329" y="695"/>
      <point x="312" y="696"/>
      <point x="295" y="696" type="curve" smooth="yes"/>
    </contour>
    <contour>
      <point x="421" y="138" type="line"/>
      <point x="312" y="138" type="line" smooth="yes"/>
      <point x="268" y="138"/>
      <point x="227" y="161"/>
      <point x="227" y="210" type="curve" smooth="yes"/>
      <point x="227" y="233"/>
      <point x="243" y="279"/>
      <point x="307" y="279" type="curve" smooth="yes"/>
      <point x="421" y="279" type="line"/>
    </contour>
  </outline>
</glyph>
<glyph name="parenright" format="1">
  <advance width="313"/>
  <unicode hex="0029"/>
  <outline>
    <contour>
      <point x="16" y="686" type="line"/>
      <point x="82" y="569"/>
      <point x="127" y="400"/>
      <point x="127" y="265" type="curve" smooth="yes"/>
      <point x="127" y="132"/>
      <point x="83" y="-43"/>
      <point x="16" y="-158" type="curve"/>
      <point x="124" y="-158" type="line"/>
      <point x="227" y="-41"/>
      <point x="283" y="108"/>
      <point x="283" y="264" type="curve" smooth="yes"/>
      <point x="283" y="420"/>
      <point x="227" y="569"/>
      <point x="124" y="686" type="curve"/>
    </contour>
  </outline>
</glyph>
<glyph name="three" format="1">
  <advance width="615"/>
  <unicode hex="0033"/>
  <outline>
    <contour>
      <point x="294" y="696" type="line" smooth="yes"/>
      <point x="143" y="696"/>
      <point x="44" y="613"/>
      <point x="44" y="509" type="curve" smooth="yes"/>
      <point x="44" y="484" type="line"/>
      <point x="211" y="484" type="line"/>
      <point x="211" y="519"/>
      <point x="242" y="547"/>
      <point x="281" y="547" type="curve" smooth="yes"/>
      <point x="299" y="547" type="line" smooth="yes"/>
      <point x="338" y="547"/>
      <point x="369" y="519"/>
      <point x="369" y="484" type="curve" smooth="yes"/>
      <point x="369" y="435"/>
      <point x="338" y="412"/>
      <point x="299" y="412" type="curve" smooth="yes"/>
      <point x="211" y="412" type="line"/>
      <point x="211" y="289" type="line"/>
      <point x="315" y="289" type="line" smooth="yes"/>
      <point x="354" y="289"/>
      <point x="385" y="266"/>
      <point x="385" y="217" type="curve" smooth="yes"/>
      <point x="385" y="170"/>
      <point x="358" y="139"/>
      <point x="305" y="139" type="curve" smooth="yes"/>
      <point x="278" y="139" type="line" smooth="yes"/>
      <point x="222" y="139"/>
      <point x="198" y="170"/>
      <point x="198" y="209" type="curve"/>
      <point x="22" y="209" type="line"/>
      <point x="22" y="188" type="line" smooth="yes"/>
      <point x="22" y="79"/>
      <point x="114" y="-10"/>
      <point x="282" y="-10" type="curve" smooth="yes"/>
      <point x="324" y="-10" type="line" smooth="yes"/>
      <point x="492" y="-10"/>
      <point x="584" y="79"/>
      <point x="584" y="189" type="curve" smooth="yes"/>
      <point x="584" y="274"/>
      <point x="542" y="334"/>
      <point x="469" y="359" type="curve"/>
      <point x="528" y="383"/>
      <point x="564" y="441"/>
      <point x="564" y="510" type="curve" smooth="yes"/>
      <point x="564" y="612"/>
      <point x="467" y="696"/>
      <point x="324" y="696" type="curve" smooth="yes"/>
    </contour>
  </outline>
</glyph>
<glyph name="less" format="1">
  <advance width="615"/>
  <unicode hex="003C"/>
  <outline>
    <contour>
      <point x="44" y="324" type="line"/>
      <point x="44" y="185" type="line"/>
      <point x="553" y="-11" type="line"/>
      <point x="553" y="127" type="line"/>
      <point x="205" y="254" type="line"/>
      <point x="553" y="382" type="line"/>
      <point x="553" y="521" type="line"/>
    </contour>
  </outline>
</glyph>
<glyph name="E" format="1">
  <advance width="600"/>
  <unicode hex="0045"/>
  <outline>
    <contour>
      <point x="572" y="686" type="line"/>
      <point x="57" y="686" type="line"/>
      <point x="57" y="0" type="line"/>
      <point x="572" y="0" type="line"/>
      <point x="552" y="164" type="line"/>
      <point x="263" y="164" type="line"/>
      <point x="263" y="275" type="line"/>
      <point x="541" y="275" type="line"/>
      <point x="541" y="428" type="line"/>
      <point x="263" y="428" type="line"/>
      <point x="263" y="528" type="line"/>
      <point x="552" y="528" type="line"/>
    </contour>
    <contour>
      <point x="540" y="10" type="move" name="ogonek"/>
    </contour>
    <contour>
      <point x="300" y="0" type="move" name="bottom"/>
    </contour>
    <contour>
      <point x="300" y="686" type="move" name="top"/>
    </contour>
  </outline>
</glyph>
<glyph name="G" format="1">
  <advance width="699"/>
  <unicode hex="0047"/>
  <outline>
    <contour>
      <point x="350" y="696" type="line" smooth="yes"/>
      <point x="162" y="696"/>
      <point x="31" y="562"/>
      <point x="31" y="396" type="curve" smooth="yes"/>
      <point x="31" y="290" type="line" smooth="yes"/>
      <point x="31" y="124"/>
      <point x="152" y="-10"/>
      <point x="317" y="-10" type="curve" smooth="yes"/>
      <point x="327" y="-10" type="line" smooth="yes"/>
      <point x="401" y="-10"/>
      <point x="481" y="25"/>
      <point x="523" y="73" type="curve"/>
      <point x="551" y="0" type="line"/>
      <point x="663" y="0" type="line"/>
      <point x="659" y="40" type="line" smooth="yes"/>
      <point x="656" y="65"/>
      <point x="656" y="101"/>
      <point x="656" y="144" type="curve" smooth="yes"/>
      <point x="656" y="384" type="line"/>
      <point x="346" y="384" type="line"/>
      <point x="346" y="248" type="line"/>
      <point x="462" y="248" type="line"/>
      <point x="462" y="185"/>
      <point x="431" y="147"/>
      <point x="375" y="147" type="curve" smooth="yes"/>
      <point x="357" y="147" type="line" smooth="yes"/>
      <point x="301" y="147"/>
      <point x="257" y="191"/>
      <point x="257" y="247" type="curve" smooth="yes"/>
      <point x="257" y="440" type="line" smooth="yes"/>
      <point x="257" y="496"/>
      <point x="301" y="540"/>
      <point x="357" y="540" type="curve" smooth="yes"/>
      <point x="362" y="540" type="line" smooth="yes"/>
      <point x="417" y="540"/>
      <point x="462" y="510"/>
      <point x="462" y="439" type="curve"/>
      <point x="656" y="439" type="line"/>
      <point x="656" y="446" type="line" smooth="yes"/>
      <point x="656" y="593"/>
      <point x="527" y="696"/>
      <point x="378" y="696" type="curve" smooth="yes"/>
    </contour>
    <contour>
      <point x="350" y="686" type="move" name="top"/>
    </contour>
    <contour>
      <point x="350" y="0" type="move" name="bottom"/>
    </contour>
  </outline>
</glyph>
<glyph name="J" format="1">
  <advance width="545"/>
  <unicode hex="004A"/>
  <outline>
    <contour>
      <point x="492" y="686" type="line"/>
      <point x="287" y="686" type="line"/>
      <point x="287" y="186" type="line" smooth="yes"/>
      <point x="287" y="158"/>
      <point x="268" y="140"/>
      <point x="245" y="140" type="curve" smooth="yes"/>
      <point x="222" y="140"/>
      <point x="204" y="158"/>
      <point x="204" y="186" type="curve" smooth="yes"/>
      <point x="204" y="248" type="line"/>
      <point x="11" y="248" type="line"/>
      <point x="11" y="180" type="line" smooth="yes"/>
      <point x="11" y="57"/>
      <point x="96" y="-10"/>
      <point x="231" y="-10" type="curve" smooth="yes"/>
      <point x="262" y="-10" type="line" smooth="yes"/>
      <point x="396" y="-10"/>
      <point x="492" y="55"/>
      <point x="492" y="180" type="curve" smooth="yes"/>
    </contour>
    <contour>
      <point x="323" y="686" type="move" name="top"/>
    </contour>
  </outline>
</glyph>
<glyph name="X" format="1">
  <advance width="675"/>
  <unicode hex="0058"/>
  <outline>
    <contour>
      <point x="669" y="686" type="line"/>
      <point x="444" y="686" type="line"/>
      <point x="349" y="511" type="line"/>
      <point x="345" y="511" type="line"/>
      <point x="250" y="686" type="line"/>
      <point x="7" y="686" type="line"/>
      <point x="200" y="363" type="line"/>
      <point x="-15" y="0" type="line"/>
      <point x="211" y="0" type="line"/>
      <point x="326" y="213" type="line"/>
      <point x="330" y="213" type="line"/>
      <point x="446" y="0" type="line"/>
      <point x="690" y="0" type="line"/>
      <point x="475" y="362" type="line"/>
    </contour>
  </outline>
</glyph>
<glyph name="asciicircum" format="1">
  <advance width="600"/>
  <unicode hex="005E"/>
  <outline>
    <contour>
      <point x="230" y="511" type="line"/>
      <point x="33" y="0" type="line"/>
      <point x="173" y="0" type="line"/>
      <point x="301" y="350" type="line"/>
      <point x="428" y="0" type="line"/>
      <point x="566" y="0" type="line"/>
      <point x="369" y="511" type="line"/>
    </contour>
  </outline>
</glyph>
<glyph name="grave" format="1">
  <advance width="333"/>
  <unicode hex="0060"/>
  <outline>
    <contour>
      <point x="44" y="720" type="line"/>
      <point x="42" y="717" type="line"/>
      <point x="168" y="575" type="line"/>
      <point x="286" y="575" type="line"/>
      <point x="195" y="720" type="line"/>
    </contour>
    <contour>
      <point x="204" y="511" type="move" name="_top"/>
    </contour>
  </outline>
</glyph>
<glyph name="g" format="1">
  <advance width="590"/>
  <unicode hex="0067"/>
  <outline>
    <contour>
      <point x="441" y="603" type="line"/>
      <point x="441" y="586"/>
      <point x="427" y="552"/>
      <point x="371" y="515" type="curve"/>
      <point x="351" y="519"/>
      <point x="329" y="521"/>
      <point x="305" y="521" type="curve" smooth="yes"/>
      <point x="277" y="521" type="line" smooth="yes"/>
      <point x="121" y="521"/>
      <point x="47" y="449"/>
      <point x="47" y="360" type="curve" smooth="yes"/>
      <point x="47" y="311"/>
      <point x="81" y="269"/>
      <point x="124" y="240" type="curve"/>
      <point x="73" y="227"/>
      <point x="32" y="184"/>
      <point x="32" y="133" type="curve" smooth="yes"/>
      <point x="32" y="98"/>
      <point x="51" y="66"/>
      <point x="80" y="46" type="curve"/>
      <point x="40" y="27"/>
      <point x="4" y="-14"/>
      <point x="4" y="-63" type="curve" smooth="yes"/>
      <point x="4" y="-68" type="line" smooth="yes"/>
      <point x="4" y="-134"/>
      <point x="58" y="-188"/>
      <point x="124" y="-188" type="curve" smooth="yes"/>
      <point x="389" y="-188" type="line" smooth="yes"/>
      <point x="498" y="-188"/>
      <point x="589" y="-108"/>
      <point x="589" y="-17" type="curve" smooth="yes"/>
      <point x="589" y="74"/>
      <point x="539" y="139"/>
      <point x="429" y="139" type="curve" smooth="yes"/>
      <point x="266" y="139" type="line" smooth="yes"/>
      <point x="219" y="139"/>
      <point x="209" y="153"/>
      <point x="209" y="170" type="curve" smooth="yes"/>
      <point x="209" y="186"/>
      <point x="225" y="200"/>
      <point x="266" y="200" type="curve" smooth="yes"/>
      <point x="335" y="200" type="line" smooth="yes"/>
      <point x="444" y="200"/>
      <point x="535" y="272"/>
      <point x="535" y="361" type="curve" smooth="yes"/>
      <point x="535" y="402"/>
      <point x="514" y="440"/>
      <point x="479" y="468" type="curve"/>
      <point x="548" y="487"/>
      <point x="589" y="522"/>
      <point x="589" y="603" type="curve"/>
    </contour>
    <contour>
      <point x="330" y="423"/>
      <point x="356" y="395"/>
      <point x="356" y="360" type="curve" smooth="yes"/>
      <point x="356" y="325"/>
      <point x="330" y="297"/>
      <point x="295" y="297" type="curve" smooth="yes"/>
      <point x="260" y="297"/>
      <point x="234" y="325"/>
      <point x="234" y="360" type="curve" smooth="yes"/>
      <point x="234" y="395"/>
      <point x="260" y="423"/>
      <point x="295" y="423" type="curve" smooth="yes"/>
    </contour>
    <contour>
      <point x="361" y="0" type="line" smooth="yes"/>
      <point x="389" y="0"/>
      <point x="411" y="-19"/>
      <point x="411" y="-42" type="curve" smooth="yes"/>
      <point x="411" y="-65"/>
      <point x="389" y="-83"/>
      <point x="361" y="-83" type="curve" smooth="yes"/>
      <point x="218" y="-83" type="line" smooth="yes"/>
      <point x="190" y="-83"/>
      <point x="168" y="-64"/>
      <point x="168" y="-41" type="curve" smooth="yes"/>
      <point x="168" y="-18"/>
      <point x="190" y="0"/>
      <point x="218" y="0" type="curve" smooth="yes"/>
    </contour>
    <contour>
      <point x="295" y="511" type="move" name="top"/>
    </contour>
  </outline>
</glyph>
<glyph name="k" format="1">
  <advance width="603"/>
  <unicode hex="006B"/>
  <outline>
    <contour>
      <point x="50" y="720" type="line"/>
      <point x="50" y="0" type="line"/>
      <point x="248" y="0" type="line"/>
      <point x="248" y="114" type="line"/>
      <point x="284" y="145" type="line"/>
      <point x="374" y="0" type="line"/>
      <point x="607" y="0" type="line"/>
      <point x="425" y="280" type="line"/>
      <point x="604" y="511" type="line"/>
      <point x="378" y="511" type="line"/>
      <point x="248" y="321" type="line"/>
      <point x="248" y="720" type="line"/>
    </contour>
    <contour>
      <point x="302" y="0" type="move" name="bottom"/>
    </contour>
  </outline>
</glyph>
<glyph name="n" format="1">
  <advance width="599"/>
  <unicode hex="006E"/>
  <outline>
    <contour>
      <point x="374" y="521" type="line" smooth="yes"/>
      <point x="278" y="521"/>
      <point x="234" y="460"/>
      <point x="219" y="437" type="curve"/>
      <point x="199" y="511" type="line"/>
      <point x="50" y="511" type="line"/>
      <point x="50" y="0" type="line"/>
      <point x="248" y="0" type="line"/>
      <point x="248" y="320" type="line" smooth="yes"/>
      <point x="248" y="353"/>
      <point x="272" y="380"/>
      <point x="301" y="380" type="curve" smooth="yes"/>
      <point x="330" y="380"/>
      <point x="354" y="353"/>
      <point x="354" y="320" type="curve" smooth="yes"/>
      <point x="354" y="0" type="line"/>
      <point x="552" y="0" type="line"/>
      <point x="552" y="371" type="line" smooth="yes"/>
      <point x="552" y="454"/>
      <point x="485" y="521"/>
      <point x="402" y="521" type="curve" smooth="yes"/>
    </contour>
    <contour>
      <point x="300" y="511" type="move" name="top"/>
    </contour>
    <contour>
      <point x="300" y="0" type="move" name="bottom"/>
    </contour>
  </outline>
</glyph>
<glyph name="braceleft" format="1">
  <advance width="343"/>
  <unicode hex="007B"/>
  <outline>
    <contour>
      <point x="239" y="686" type="line" smooth="yes"/>
      <point x="171" y="686"/>
      <point x="98" y="651"/>
      <point x="98" y="574" type="curve" smooth="yes"/>
      <point x="98" y="360" type="line" smooth="yes"/>
      <point x="98" y="320"/>
      <point x="56" y="303"/>
      <point x="21" y="303" type="curve"/>
      <point x="21" y="224" type="line"/>
      <point x="61" y="224"/>
      <point x="98" y="209"/>
      <point x="98" y="169" type="curve" smooth="yes"/>
      <point x="98" y="-47" type="line" smooth="yes"/>
      <point x="98" y="-124"/>
      <point x="171" y="-159"/>
      <point x="239" y="-159" type="curve" smooth="yes"/>
      <point x="320" y="-159" type="line"/>
      <point x="320" y="-91" type="line"/>
      <point x="291" y="-91"/>
      <point x="247" y="-87"/>
      <point x="244" y="-49" type="curve"/>
      <point x="234" y="156" type="line" smooth="yes"/>
      <point x="231" y="221"/>
      <point x="201" y="259"/>
      <point x="133" y="259" type="curve"/>
      <point x="133" y="268" type="line"/>
      <point x="201" y="268"/>
      <point x="231" y="306"/>
      <point x="234" y="371" type="curve" smooth="yes"/>
      <point x="244" y="577" type="line"/>
      <point x="247" y="614"/>
      <point x="292" y="618"/>
      <point x="320" y="618" type="curve"/>
      <point x="320" y="686" type="line"/>
    </contour>
  </outline>
</glyph>
<glyph name="bar" format="1">
  <advance width="232"/>
  <unicode hex="007C"/>
  <outline>
    <contour>
      <point x="56" y="720" type="line"/>
      <point x="56" y="-199" type="line"/>
      <point x="176" y="-199" type="line"/>
      <point x="176" y="720" type="line"/>
    </contour>
  </outline>
</glyph>
<glyph name="section" format="1">
  <advance width="565"/>
  <unicode hex="00A7"/>
  <outline>
    <contour>
      <point x="174" y="696"/>
      <point x="43" y="654"/>
      <point x="43" y="529" type="curve" smooth="yes"/>
      <point x="43" y="482"/>
      <point x="65" y="426"/>
      <point x="108" y="402" type="curve"/>
      <point x="60" y="371"/>
      <point x="29" y="310"/>
      <point x="29" y="254" type="curve" smooth="yes"/>
      <point x="29" y="157"/>
      <point x="108" y="105"/>
      <point x="188" y="71" type="curve" smooth="yes"/>
      <point x="265" y="38" type="line" smooth="yes"/>
      <point x="312" y="18"/>
      <point x="347" y="-2"/>
      <point x="347" y="-31" type="curve" smooth="yes"/>
      <point x="347" y="-63"/>
      <point x="298" y="-67"/>
      <point x="277" y="-67" type="curve" smooth="yes"/>
      <point x="250" y="-67"/>
      <point x="214" y="-58"/>
      <point x="214" y="-25" type="curve"/>
      <point x="50" y="-25" type="line"/>
      <point x="50" y="-32" type="line" smooth="yes"/>
      <point x="50" y="-152"/>
      <point x="187" y="-185"/>
      <point x="286" y="-185" type="curve" smooth="yes"/>
      <point x="390" y="-185"/>
      <point x="521" y="-143"/>
      <point x="521" y="-18" type="curve" smooth="yes"/>
      <point x="521" y="29"/>
      <point x="498" y="85"/>
      <point x="456" y="109" type="curve"/>
      <point x="504" y="140"/>
      <point x="535" y="201"/>
      <point x="535" y="257" type="curve" smooth="yes"/>
      <point x="535" y="353"/>
      <point x="456" y="407"/>
      <point x="376" y="440" type="curve" smooth="yes"/>
      <point x="299" y="472" type="line" smooth="yes"/>
      <point x="252" y="491"/>
      <point x="217" y="514"/>
      <point x="217" y="542" type="curve" smooth="yes"/>
      <point x="217" y="574"/>
      <point x="266" y="578"/>
      <point x="287" y="578" type="curve" smooth="yes"/>
      <point x="314" y="578"/>
      <point x="350" y="566"/>
      <point x="350" y="533" type="curve"/>
      <point x="514" y="533" type="line"/>
      <point x="514" y="543" type="line" smooth="yes"/>
      <point x="514" y="663"/>
      <point x="377" y="696"/>
      <point x="278" y="696" type="curve" smooth="yes"/>
    </contour>
    <contour>
      <point x="263" y="318"/>
      <point x="388" y="282"/>
      <point x="388" y="213" type="curve" smooth="yes"/>
      <point x="388" y="193"/>
      <point x="377" y="172"/>
      <point x="358" y="164" type="curve"/>
      <point x="305" y="188"/>
      <point x="181" y="226"/>
      <point x="181" y="294" type="curve" smooth="yes"/>
      <point x="181" y="314"/>
      <point x="192" y="335"/>
      <point x="211" y="343" type="curve"/>
    </contour>
  </outline>
</glyph>
<glyph name="dieresis" format="1">
  <advance width="440"/>
  <unicode hex="00A8"/>
  <outline>
    <contour>
      <point x="257" y="750" type="line"/>
      <point x="257" y="603" type="line"/>
      <point x="409" y="603" type="line"/>
      <point x="409" y="750" type="line"/>
    </contour>
    <contour>
      <point x="37" y="750" type="line"/>
      <point x="37" y="603" type="line"/>
      <point x="189" y="603" type="line"/>
      <point x="189" y="750" type="line"/>
    </contour>
    <contour>
      <point x="223" y="511" type="move" name="_top"/>
    </contour>
  </outline>
</glyph>
<glyph name="cedilla" format="1">
  <advance width="334"/>
  <unicode hex="00B8"/>
  <outline>
    <contour>
      <point x="148" y="-17" type="line"/>
      <point x="148" y="-76" type="line"/>
      <point x="166" y="-76" type="line" smooth="yes"/>
      <point x="195" y="-76"/>
      <point x="204" y="-88"/>
      <point x="204" y="-108" type="curve" smooth="yes"/>
      <point x="204" y="-131"/>
      <point x="188" y="-139"/>
      <point x="164" y="-139" type="curve" smooth="yes"/>
      <point x="121" y="-139"/>
      <point x="95" y="-121"/>
      <point x="79" y="-107" type="curve"/>
      <point x="47" y="-161" type="line"/>
      <point x="76" y="-185"/>
      <point x="126" y="-197"/>
      <point x="173" y="-197" type="curve" smooth="yes"/>
      <point x="218" y="-197"/>
      <point x="291" y="-181"/>
      <point x="291" y="-108" type="curve" smooth="yes"/>
      <point x="291" y="-34"/>
      <point x="228" y="-17"/>
      <point x="169" y="-17" type="curve" smooth="yes"/>
    </contour>
    <contour>
      <point x="169" y="0" type="move" name="_bottom"/>
    </contour>
  </outline>
</glyph>
<glyph name="guillemotright" format="1">
  <advance width="442"/>
  <unicode hex="00BB"/>
  <outline>
    <contour>
      <point x="218" y="511" type="line"/>
      <point x="303" y="337" type="line"/>
      <point x="218" y="163" type="line"/>
      <point x="292" y="163" type="line"/>
      <point x="412" y="337" type="line"/>
      <point x="292" y="511" type="line"/>
    </contour>
    <contour>
      <point x="37" y="511" type="line"/>
      <point x="122" y="337" type="line"/>
      <point x="37" y="163" type="line"/>
      <point x="111" y="163" type="line"/>
      <point x="231" y="337" type="line"/>
      <point x="111" y="511" type="line"/>
    </contour>
  </outline>
</glyph>
<glyph name="threequarters" format="1">
  <advance width="757"/>
  <unicode hex="00BE"/>
  <outline>
    <contour>
      <point x="556" y="686" type="line"/>
      <point x="136" y="0" type="line"/>
      <point x="225" y="0" type="line"/>
      <point x="642" y="686" type="line"/>
    </contour>
    <contour>
      <point x="173" y="693" type="line" smooth="yes"/>
      <point x="92" y="693"/>
      <point x="39" y="648"/>
      <point x="39" y="592" type="curve" smooth="yes"/>
      <point x="39" y="579" type="line"/>
      <point x="129" y="579" type="line"/>
      <point x="129" y="598"/>
      <point x="145" y="613"/>
      <point x="166" y="613" type="curve" smooth="yes"/>
      <point x="176" y="613" type="line" smooth="yes"/>
      <point x="197" y="613"/>
      <point x="213" y="596"/>
      <point x="213" y="577" type="curve" smooth="yes"/>
      <point x="213" y="546"/>
      <point x="197" y="536"/>
      <point x="176" y="536" type="curve" smooth="yes"/>
      <point x="129" y="536" type="line"/>
      <point x="129" y="470" type="line"/>
      <point x="184" y="470" type="line" smooth="yes"/>
      <point x="205" y="470"/>
      <point x="222" y="460"/>
      <point x="222" y="429" type="curve" smooth="yes"/>
      <point x="222" y="404"/>
      <point x="208" y="385"/>
      <point x="179" y="385" type="curve" smooth="yes"/>
      <point x="165" y="385" type="line" smooth="yes"/>
      <point x="134" y="385"/>
      <point x="122" y="402"/>
      <point x="122" y="423" type="curve"/>
      <point x="27" y="423" type="line"/>
      <point x="27" y="412" type="line" smooth="yes"/>
      <point x="27" y="352"/>
      <point x="75" y="305"/>
      <point x="167" y="305" type="curve" smooth="yes"/>
      <point x="189" y="305" type="line" smooth="yes"/>
      <point x="281" y="305"/>
      <point x="329" y="352"/>
      <point x="329" y="412" type="curve" smooth="yes"/>
      <point x="329" y="460"/>
      <point x="306" y="493"/>
      <point x="267" y="508" type="curve"/>
      <point x="298" y="521"/>
      <point x="318" y="554"/>
      <point x="318" y="593" type="curve" smooth="yes"/>
      <point x="318" y="649"/>
      <point x="268" y="693"/>
      <point x="189" y="693" type="curve" smooth="yes"/>
    </contour>
    <contour>
      <point x="509" y="375" type="line"/>
      <point x="498" y="322"/>
      <point x="452" y="210"/>
      <point x="425" y="162" type="curve"/>
      <point x="425" y="81" type="line"/>
      <point x="576" y="81" type="line"/>
      <point x="576" y="0" type="line"/>
      <point x="677" y="0" type="line"/>
      <point x="677" y="81" type="line"/>
      <point x="730" y="81" type="line"/>
      <point x="730" y="161" type="line"/>
      <point x="677" y="161" type="line"/>
      <point x="677" y="339" type="line"/>
      <point x="632" y="339" type="line"/>
      <point x="624" y="309"/>
      <point x="594" y="242"/>
      <point x="576" y="216" type="curve"/>
      <point x="576" y="161" type="line"/>
      <point x="495" y="161" type="line"/>
      <point x="533" y="207"/>
      <point x="596" y="318"/>
      <point x="604" y="375" type="curve"/>
    </contour>
  </outline>
</glyph>
<glyph name="Aacute" format="1">
  <advance width="709"/>
  <unicode hex="00C1"/>
  <outline>
    <contour>
      <point x="543" y="896" type="line"/>
      <point x="392" y="896" type="line"/>
      <point x="301" y="751" type="line"/>
      <point x="419" y="751" type="line"/>
      <point x="545" y="893" type="line"/>
    </contour>
    <contour>
      <point x="485" y="686" type="line"/>
      <point x="224" y="686" type="line"/>
      <point x="-5" y="0" type="line"/>
      <point x="197" y="0" type="line"/>
      <point x="237" y="122" type="line"/>
      <point x="455" y="122" type="line"/>
      <point x="496" y="0" type="line"/>
      <point x="714" y="0" type="line"/>
    </contour>
    <contour>
      <point x="349" y="475" type="line"/>
      <point x="407" y="267" type="line"/>
      <point x="285" y="267" type="line"/>
      <point x="344" y="475" type="line"/>
    </contour>
  </outline>
</glyph>
<glyph name="Adieresis" format="1">
  <advance width="709"/>
  <unicode hex="00C4"/>
  <outline>
    <contour>
      <point x="314" y="897" type="line"/>
      <point x="162" y="897" type="line"/>
      <point x="162" y="750" type="line"/>
      <point x="314" y="750" type="line"/>
    </contour>
    <contour>
      <point x="534" y="897" type="line"/>
      <point x="382" y="897" type="line"/>
      <point x="382" y="750" type="line"/>
      <point x="534" y="750" type="line"/>
    </contour>
    <contour>
      <point x="485" y="686" type="line"/>
      <point x="224" y="686" type="line"/>
      <point x="-5" y="0" type="line"/>
      <point x="197" y="0" type="line"/>
      <point x="237" y="122" type="line"/>
      <point x="455" y="122" type="line"/>
      <point x="496" y="0" type="line"/>
      <point x="714" y="0" type="line"/>
    </contour>
    <contour>
      <point x="349" y="475" type="line"/>
      <point x="407" y="267" type="line"/>
      <point x="285" y="267" type="line"/>
      <point x="344" y="475" type="line"/>
    </contour>
  </outline>
</glyph>
<glyph name="Ccedilla" format="1">
  <advance width="683"/>
  <unicode hex="00C7"/>
  <outline>
    <contour>
      <point x="341" y="696" type="line" smooth="yes"/>
      <point x="175" y="696"/>
      <point x="31" y="576"/>
      <point x="31" y="396" type="curve" smooth="yes"/>
      <point x="31" y="290" type="line" smooth="yes"/>
      <point x="31" y="100"/>
      <point x="173" y="-10"/>
      <point x="349" y="-10" type="curve" smooth="yes"/>
      <point x="377" y="-10" type="line" smooth="yes"/>
      <point x="539" y="-10"/>
      <point x="659" y="100"/>
      <point x="659" y="280" type="curve"/>
      <point x="471" y="280" type="line"/>
      <point x="471" y="247" type="line" smooth="yes"/>
      <point x="471" y="183"/>
      <point x="427" y="147"/>
      <point x="371" y="147" type="curve" smooth="yes"/>
      <point x="357" y="147" type="line" smooth="yes"/>
      <point x="301" y="147"/>
      <point x="257" y="191"/>
      <point x="257" y="247" type="curve" smooth="yes"/>
      <point x="257" y="440" type="line" smooth="yes"/>
      <point x="257" y="496"/>
      <point x="301" y="540"/>
      <point x="357" y="540" type="curve" smooth="yes"/>
      <point x="362" y="540" type="line" smooth="yes"/>
      <point x="418" y="540"/>
      <point x="462" y="503"/>
      <point x="462" y="440" type="curve" smooth="yes"/>
      <point x="462" y="405" type="line"/>
      <point x="659" y="405" type="line"/>
      <point x="659" y="600"/>
      <point x="532" y="696"/>
      <point x="369" y="696" type="curve" smooth="yes"/>
    </contour>
    <contour>
      <point x="328" y="-17" type="line"/>
      <point x="328" y="-76" type="line"/>
      <point x="346" y="-76" type="line" smooth="yes"/>
      <point x="375" y="-76"/>
      <point x="384" y="-88"/>
      <point x="384" y="-108" type="curve" smooth="yes"/>
      <point x="384" y="-131"/>
      <point x="368" y="-139"/>
      <point x="344" y="-139" type="curve" smooth="yes"/>
      <point x="301" y="-139"/>
      <point x="275" y="-121"/>
      <point x="259" y="-107" type="curve"/>
      <point x="227" y="-161" type="line"/>
      <point x="256" y="-185"/>
      <point x="306" y="-197"/>
      <point x="353" y="-197" type="curve" smooth="yes"/>
      <point x="398" y="-197"/>
      <point x="471" y="-181"/>
      <point x="471" y="-108" type="curve" smooth="yes"/>
      <point x="471" y="-34"/>
      <point x="408" y="-17"/>
      <point x="349" y="-17" type="curve" smooth="yes"/>
    </contour>
  </outline>
</glyph>
<glyph name="Egrave" format="1">
  <advance width="600"/>
  <unicode hex="00C8"/>
  <outline>
    <contour>
      <point x="300" y="896" type="line"/>
      <point x="149" y="896" type="line"/>
      <point x="147" y="893" type="line"/>
      <point x="273" y="751" type="line"/>
      <point x="391" y="751" type="line"/>
    </contour>
    <contour>
      <point x="572" y="686" type="line"/>
      <point x="57" y="686" type="line"/>
      <point x="57" y="0" type="line"/>
      <point x="572" y="0" type="line"/>
      <point x="552" y="164" type="line"/>
      <point x="263" y="164" type="line"/>
      <point x="263" y="275" type="line"/>
      <point x="541" y="275" type="line"/>
      <point x="541" y="428" type="line"/>
      <point x="263" y="428" type="line"/>
      <point x="263" y="528" type="line"/>
      <point x="552" y="528" type="line"/>
    </contour>
  </outline>
</glyph>
<glyph name="Edieresis" format="1">
  <advance width="600"/>
  <unicode hex="00CB"/>
  <outline>
    <contour>
      <point x="277" y="898" type="line"/>
      <point x="125" y="898" type="line"/>
      <point x="125" y="751" type="line"/>
      <point x="277" y="751" type="line"/>
    </contour>
    <contour>
      <point x="497" y="898" type="line"/>
      <point x="345" y="898" type="line"/>
      <point x="345" y="751" type="line"/>
      <point x="497" y="751" type="line"/>
    </contour>
    <contour>
      <point x="572" y="686" type="line"/>
      <point x="57" y="686" type="line"/>
      <point x="57" y="0" type="line"/>
      <point x="572" y="0" type="line"/>
      <point x="552" y="164" type="line"/>
      <point x="263" y="164" type="line"/>
      <point x="263" y="275" type="line"/>
      <point x="541" y="275" type="line"/>
      <point x="541" y="428" type="line"/>
      <point x="263" y="428" type="line"/>
      <point x="263" y="528" type="line"/>
      <point x="552" y="528" type="line"/>
    </contour>
  </outline>
</glyph>
<glyph name="Idieresis" format="1">
  <advance width="446"/>
  <unicode hex="00CF"/>
  <outline>
    <contour>
      <point x="189" y="897" type="line"/>
      <point x="37" y="897" type="line"/>
      <point x="37" y="750" type="line"/>
      <point x="189" y="750" type="line"/>
    </contour>
    <contour>
      <point x="409" y="897" type="line"/>
      <point x="257" y="897" type="line"/>
      <point x="257" y="750" type="line"/>
      <point x="409" y="750" type="line"/>
    </contour>
    <contour>
      <point x="410" y="686" type="line"/>
      <point x="36" y="686" type="line"/>
      <point x="36" y="539" type="line"/>
      <point x="117" y="539" type="line"/>
      <point x="117" y="148" type="line"/>
      <point x="36" y="148" type="line"/>
      <point x="36" y="0" type="line"/>
      <point x="410" y="0" type="line"/>
      <point x="410" y="148" type="line"/>
      <point x="329" y="148" type="line"/>
      <point x="329" y="539" type="line"/>
      <point x="410" y="539" type="line"/>
    </contour>
  </outline>
</glyph>
<glyph name="Yacute" format="1">
  <advance width="646"/>
  <unicode hex="00DD"/>
  <outline>
    <contour>
      <point x="512" y="895" type="line"/>
      <point x="361" y="895" type="line"/>
      <point x="270" y="750" type="line"/>
      <point x="388" y="750" type="line"/>
      <point x="514" y="892" type="line"/>
    </contour>
    <contour>
      <point x="655" y="686" type="line"/>
      <point x="440" y="686" type="line"/>
      <point x="335" y="461" type="line"/>
      <point x="330" y="461" type="line"/>
      <point x="227" y="686" type="line"/>
      <point x="-9" y="686" type="line"/>
      <point x="219" y="262" type="line"/>
      <point x="219" y="0" type="line"/>
      <point x="428" y="0" type="line"/>
      <point x="428" y="262" type="line"/>
    </contour>
  </outline>
</glyph>
<glyph name="germandbls" format="1">
  <advance width="652"/>
  <unicode hex="00DF"/>
  <outline>
    <contour>
      <point x="221" y="728"/>
      <point x="95" y="650"/>
      <point x="87" y="511" type="curve"/>
      <point x="25" y="511" type="line"/>
      <point x="25" y="369" type="line"/>
      <point x="87" y="369" type="line"/>
      <point x="87" y="-66" type="line"/>
      <point x="285" y="-66" type="line"/>
      <point x="285" y="511" type="line" smooth="yes"/>
      <point x="285" y="550"/>
      <point x="313" y="579"/>
      <point x="349" y="579" type="curve" smooth="yes"/>
      <point x="384" y="579"/>
      <point x="412" y="550"/>
      <point x="412" y="511" type="curve" smooth="yes"/>
      <point x="412" y="472"/>
      <point x="384" y="443"/>
      <point x="348" y="443" type="curve" smooth="yes"/>
      <point x="321" y="443" type="line"/>
      <point x="321" y="321" type="line"/>
      <point x="349" y="321" type="line" smooth="yes"/>
      <point x="394" y="321"/>
      <point x="430" y="282"/>
      <point x="430" y="234" type="curve" smooth="yes"/>
      <point x="430" y="187"/>
      <point x="393" y="148"/>
      <point x="349" y="148" type="curve" smooth="yes"/>
      <point x="321" y="148" type="line"/>
      <point x="321" y="0" type="line"/>
      <point x="384" y="0" type="line" smooth="yes"/>
      <point x="524" y="0"/>
      <point x="627" y="71"/>
      <point x="627" y="219" type="curve" smooth="yes"/>
      <point x="627" y="295"/>
      <point x="579" y="365"/>
      <point x="507" y="390" type="curve"/>
      <point x="507" y="395" type="line"/>
      <point x="566" y="419"/>
      <point x="601" y="477"/>
      <point x="601" y="541" type="curve" smooth="yes"/>
      <point x="601" y="681"/>
      <point x="466" y="728"/>
      <point x="349" y="728" type="curve" smooth="yes"/>
    </contour>
  </outline>
</glyph>
<glyph name="ccedilla" format="1">
  <advance width="569"/>
  <unicode hex="00E7"/>
  <outline>
    <contour>
      <point x="276" y="521" type="line" smooth="yes"/>
      <point x="141" y="521"/>
      <point x="26" y="411"/>
      <point x="26" y="276" type="curve" smooth="yes"/>
      <point x="26" y="235" type="line" smooth="yes"/>
      <point x="26" y="100"/>
      <point x="143" y="-10"/>
      <point x="278" y="-10" type="curve" smooth="yes"/>
      <point x="307" y="-10" type="line" smooth="yes"/>
      <point x="451" y="-10"/>
      <point x="545" y="68"/>
      <point x="545" y="207" type="curve"/>
      <point x="387" y="207" type="line"/>
      <point x="387" y="181" type="line" smooth="yes"/>
      <point x="387" y="142"/>
      <point x="359" y="111"/>
      <point x="320" y="111" type="curve" smooth="yes"/>
      <point x="308" y="111" type="line" smooth="yes"/>
      <point x="269" y="111"/>
      <point x="238" y="142"/>
      <point x="238" y="181" type="curve" smooth="yes"/>
      <point x="238" y="330" type="line" smooth="yes"/>
      <point x="238" y="369"/>
      <point x="268" y="400"/>
      <point x="307" y="400" type="curve" smooth="yes"/>
      <point x="346" y="400"/>
      <point x="376" y="369"/>
      <point x="376" y="330" type="curve" smooth="yes"/>
      <point x="376" y="304" type="line"/>
      <point x="545" y="304" type="line"/>
      <point x="545" y="428"/>
      <point x="458" y="521"/>
      <point x="306" y="521" type="curve" smooth="yes"/>
    </contour>
    <contour>
      <point x="278" y="-17" type="line"/>
      <point x="278" y="-76" type="line"/>
      <point x="296" y="-76" type="line" smooth="yes"/>
      <point x="325" y="-76"/>
      <point x="334" y="-88"/>
      <point x="334" y="-108" type="curve" smooth="yes"/>
      <point x="334" y="-131"/>
      <point x="318" y="-139"/>
      <point x="294" y="-139" type="curve" smooth="yes"/>
      <point x="251" y="-139"/>
      <point x="225" y="-121"/>
      <point x="209" y="-107" type="curve"/>
      <point x="177" y="-161" type="line"/>
      <point x="206" y="-185"/>
      <point x="256" y="-197"/>
      <point x="303" y="-197" type="curve" smooth="yes"/>
      <point x="348" y="-197"/>
      <point x="421" y="-181"/>
      <point x="421" y="-108" type="curve" smooth="yes"/>
      <point x="421" y="-34"/>
      <point x="358" y="-17"/>
      <point x="299" y="-17" type="curve" smooth="yes"/>
    </contour>
  </outline>
</glyph>
<glyph name="mu" format="1">
  <advance width="649"/>
  <unicode hex="03BC"/>
  <outline>
    <contour>
      <point x="360" y="511" type="line"/>
      <point x="360" y="191" type="line" smooth="yes"/>
      <point x="360" y="158"/>
      <point x="336" y="131"/>
      <point x="307" y="131" type="curve" smooth="yes"/>
      <point x="278" y="131"/>
      <point x="254" y="158"/>
      <point x="254" y="191" type="curve" smooth="yes"/>
      <point x="254" y="511" type="line"/>
      <point x="56" y="511" type="line"/>
      <point x="56" y="-161" type="line"/>
      <point x="254" y="-161" type="line"/>
      <point x="254" y="-83" type="line" smooth="yes"/>
      <point x="254" y="-60"/>
      <point x="252" y="-41"/>
      <point x="250" y="-26" type="curve" smooth="yes"/>
      <point x="246" y="-2" type="line"/>
      <point x="307" y="6"/>
      <point x="361" y="50"/>
      <point x="376" y="71" type="curve"/>
      <point x="395" y="20"/>
      <point x="434" y="-10"/>
      <point x="523" y="-10" type="curve" smooth="yes"/>
      <point x="575" y="-10"/>
      <point x="606" y="0"/>
      <point x="624" y="13" type="curve"/>
      <point x="624" y="120" type="line"/>
      <point x="613" y="114"/>
      <point x="601" y="111"/>
      <point x="589" y="111" type="curve" smooth="yes"/>
      <point x="574" y="111"/>
      <point x="558" y="121"/>
      <point x="558" y="148" type="curve" smooth="yes"/>
      <point x="558" y="511" type="line"/>
    </contour>
  </outline>
</glyph>
<glyph name="pi" format="1">
  <advance width="717"/>
  <unicode hex="03C0"/>
  <outline>
    <contour>
      <point x="219" y="511" type="line" smooth="yes"/>
      <point x="103" y="511"/>
      <point x="36" y="498"/>
      <point x="9" y="475" type="curve"/>
      <point x="25" y="376" type="line"/>
      <point x="52" y="383"/>
      <point x="90" y="386"/>
      <point x="138" y="386" type="curve"/>
      <point x="138" y="277"/>
      <point x="107" y="104"/>
      <point x="72" y="0" type="curve"/>
      <point x="260" y="0" type="line"/>
      <point x="295" y="81"/>
      <point x="322" y="268"/>
      <point x="327" y="386" type="curve"/>
      <point x="425" y="386" type="line"/>
      <point x="425" y="153" type="line" smooth="yes"/>
      <point x="425" y="82"/>
      <point x="430" y="19"/>
      <point x="445" y="0" type="curve"/>
      <point x="632" y="0" type="line"/>
      <point x="625" y="33"/>
      <point x="618" y="89"/>
      <point x="618" y="165" type="curve" smooth="yes"/>
      <point x="618" y="386" type="line"/>
      <point x="696" y="386" type="line"/>
      <point x="710" y="511" type="line"/>
    </contour>
  </outline>
</glyph>
<glyph name="quotedblbase" format="1">
  <advance width="535"/>
  <unicode hex="201E"/>
  <outline>
    <contour>
      <point x="296" y="183" type="line"/>
      <point x="296" y="0" type="line"/>
      <point x="380" y="0" type="line"/>
      <point x="343" y="-165" type="line"/>
      <point x="437" y="-165" type="line"/>
      <point x="487" y="22" type="line"/>
      <point x="487" y="183" type="line"/>
    </contour>
    <contour>
      <point x="48" y="183" type="line"/>
      <point x="48" y="0" type="line"/>
      <point x="132" y="0" type="line"/>
      <point x="95" y="-165" type="line"/>
      <point x="189" y="-165" type="line"/>
      <point x="239" y="22" type="line"/>
      <point x="239" y="183" type="line"/>
    </contour>
  </outline>
</glyph>
<glyph name="Euro" format="1">
  <advance width="596"/>
  <unicode hex="20AC"/>
  <outline>
    <contour>
      <point x="302" y="692"/>
      <point x="160" y="637"/>
      <point x="118" y="457" type="curve"/>
      <point x="28" y="457" type="line"/>
      <point x="28" y="365" type="line"/>
      <point x="106" y="365" type="line"/>
      <point x="106" y="317" type="line"/>
      <point x="28" y="317" type="line"/>
      <point x="28" y="225" type="line"/>
      <point x="118" y="225" type="line"/>
      <point x="161" y="43"/>
      <point x="307" y="-10"/>
      <point x="417" y="-10" type="curve" smooth="yes"/>
      <point x="470" y="-10"/>
      <point x="517" y="2"/>
      <point x="553" y="15" type="curve"/>
      <point x="553" y="182" type="line"/>
      <point x="528" y="167"/>
      <point x="495" y="156"/>
      <point x="463" y="156" type="curve" smooth="yes"/>
      <point x="420" y="156"/>
      <point x="361" y="169"/>
      <point x="329" y="225" type="curve"/>
      <point x="462" y="225" type="line"/>
      <point x="462" y="317" type="line"/>
      <point x="304" y="317" type="line"/>
      <point x="303" y="321"/>
      <point x="303" y="325"/>
      <point x="303" y="329" type="curve" smooth="yes"/>
      <point x="303" y="354" type="line" smooth="yes"/>
      <point x="303" y="358"/>
      <point x="303" y="362"/>
      <point x="304" y="365" type="curve"/>
      <point x="462" y="365" type="line"/>
      <point x="462" y="457" type="line"/>
      <point x="325" y="457" type="line"/>
      <point x="357" y="518"/>
      <point x="409" y="532"/>
      <point x="451" y="532" type="curve" smooth="yes"/>
      <point x="495" y="532"/>
      <point x="533" y="522"/>
      <point x="553" y="514" type="curve"/>
      <point x="553" y="674" type="line"/>
      <point x="522" y="683"/>
      <point x="476" y="692"/>
      <point x="420" y="692" type="curve" smooth="yes"/>
    </contour>
  </outline>
</glyph>
<glyph name="uni2113" format="1">
  <advance width="536"/>
  <unicode hex="2113"/>
  <outline>
    <contour>
      <point x="250" y="230" type="line"/>
      <point x="394" y="230"/>
      <point x="506" y="317"/>
      <point x="506" y="469" type="curve" smooth="yes"/>
      <point x="506" y="488" type="line" smooth="yes"/>
      <point x="506" y="625"/>
      <point x="437" y="700"/>
      <point x="311" y="700" type="curve" smooth="yes"/>
      <point x="178" y="700"/>
      <point x="79" y="617"/>
      <point x="79" y="467" type="curve" smooth="yes"/>
      <point x="79" y="405" type="line"/>
      <point x="277" y="405" type="line"/>
      <point x="277" y="467" type="line" smooth="yes"/>
      <point x="277" y="531"/>
      <point x="303" y="565"/>
      <point x="342" y="565" type="curve" smooth="yes"/>
      <point x="377" y="565"/>
      <point x="402" y="537"/>
      <point x="402" y="482" type="curve" smooth="yes"/>
      <point x="402" y="465" type="line" smooth="yes"/>
      <point x="402" y="366"/>
      <point x="346" y="325"/>
      <point x="250" y="325" type="curve"/>
    </contour>
    <contour>
      <point x="8" y="229" type="line"/>
      <point x="230" y="229" type="line"/>
      <point x="230" y="326" type="line"/>
      <point x="8" y="326" type="line"/>
    </contour>
    <contour>
      <point x="79" y="447" type="line"/>
      <point x="79" y="150" type="line" smooth="yes"/>
      <point x="79" y="28"/>
      <point x="168" y="-11"/>
      <point x="273" y="-11" type="curve" smooth="yes"/>
      <point x="342" y="-11"/>
      <point x="409" y="6"/>
      <point x="446" y="31" type="curve"/>
      <point x="446" y="143" type="line"/>
      <point x="422" y="130"/>
      <point x="380" y="111"/>
      <point x="344" y="111" type="curve" smooth="yes"/>
      <point x="317" y="111"/>
      <point x="277" y="122"/>
      <point x="277" y="180" type="curve" smooth="yes"/>
      <point x="277" y="447" type="line"/>
    </contour>
  </outline>
</glyph>
<glyph name="lozenge" format="1">
  <advance width="535"/>
  <unicode hex="25CA"/>
  <outline>
    <contour>
      <point x="198" y="686" type="line"/>
      <point x="26" y="343" type="line"/>
      <point x="198" y="0" type="line"/>
      <point x="337" y="0" type="line"/>
      <point x="509" y="343" type="line"/>
      <point x="337" y="686" type="line"/>
    </contour>
    <contour>
      <point x="375" y="343" type="line"/>
      <point x="269" y="121" type="line"/>
      <point x="162" y="343" type="line"/>
      <point x="269" y="565" type="line"/>
    </contour>
  </outline>
</glyph>
